{"title":"The Warriors Way CAM XViD - IMAGiNE","uid":6016753,"size":724678279,"categoryP":"video","categoryS":"movies","magnet":"?xt=urn:btih:6ba2cdb63de6510673fe107753b98028dcb95f2e&amp;dn=The+Warriors+Way+CAM+XViD+-+IMAGiNE&amp;tr=udp%3A%2F%2Ftracker.openbittorrent.com%3A80&amp;tr=udp%3A%2F%2Fopen.demonii.com%3A1337&amp;tr=udp%3A%2F%2Ftracker.coppersurfer.tk%3A6969&amp;tr=udp%3A%2F%2Fexodus.desync.com%3A6969","seeders":0,"leechers":0,"uploader":"SAFCukO09","files":52,"time":1291659100,"description":"*********** **** **** *** ******** *********** **** *** **********\n\n*+* +*+*+* *+*+*+ *+* *+* *+* *+* *+* *+*+* *+* *+*\n\n+*+ +*+ +*+*+ +*+ +*+ +*+ +*+ +*+ *+*+*+ +*+ +*+\n\n+$+ +$+ +*+ +$+ +$++*++$++* *$* +$+ +$+ +*+ +$+ +$++*++$\n\n+$+ +$+ +$+ +$+ +$+ +$+ +$+$ +$+ +$+ +$+$+$ +$+\n\n$+$ $+$ $+$ $+$ $+$ $+$ $+$ $+$ $+$ $+$+$ $+$\n\n$$$$$$$$$$$ $$$ $$$ $$$ $$$ $$$$$$$$ $$$$$$$$$$$ $$$ $$$$ $$$$$$$$$$\n\n\n\n\n\n\n\n\n\nAnother Fine Release Brought to you from - IMAGiNE\n\n\n\n\n\n********************************************************************************************************************\n\nThe Warrior's Way CAM XViD - IMAGiNE\n\n\n\n********************************************************************************************************************\n\n\n\nRipper ...........:IMAGiNE IMDB Rating.......:6.5/10\n\nVideo Codec.......:XVID Release Date......:12/06/10\n\nAudio Codec.......:MP3 Theatre Date......:12/03/10\n\nAudio Bitrate.....:128 Runtime...........:1h 27mn\n\nSubtitles.........:NIL Language..........:ENGLISH\n\nResolution........:640 x 288 IMDb URL.......... http://www.imdb.com/title/tt1032751/\n\n\n\n\n\nDETAILS:\n\n\n\nVideo\n\nID : 0\n\nFormat : MPEG-4 Visual\n\nFormat profile : Advanced Simple@L5\n\nFormat settings, BVOP : Yes\n\nFormat settings, QPel : No\n\nFormat settings, GMC : No warppoints\n\nFormat settings, Matrix : Default (H.263)\n\nMuxing mode : Packed bitstream\n\nCodec ID : XVID\n\nCodec ID/Hint : XviD\n\nDuration : 1h 27mn\n\nBit rate : 945 Kbps\n\nWidth : 640 pixels\n\nHeight : 288 pixels\n\nDisplay aspect ratio : 2.222\n\nFrame rate : 25.000 fps\n\nColor space : YUV\n\nChroma subsampling : 4:2:0\n\nBit depth : 8 bits\n\nScan type : Progressive\n\nBits/(Pixel*Frame) : 0.205\n\nStream size : 594 MiB (87%)\n\nWriting library : XviD 1.1.2 (UTC 2006-11-01)\n\n\n\nAudio\n\nID : 1\n\nFormat : MPEG Audio\n\nFormat version : Version 1\n\nFormat profile : Layer 3\n\nCodec ID : 55\n\nCodec ID/Hint : MP3\n\nDuration : 1h 27mn\n\nBit rate mode : Constant\n\nBit rate : 128 Kbps\n\nChannel(s) : 2 channels\n\nSampling rate : 44.1 KHz\n\nStream size : 80.5 MiB (12%)\n\nAlignment : Split accross interleaves\n\nInterleave, duration : 40 ms (1.00 video frame)\n\nInterleave, preload duration : 500 ms\n\n\n\n\n\n\n\n\n\n\n\n\n\nSOURCES:\n\n\n\nVIDEO:Put.voina.2010.D.CAMRip.ELEKTRI4KA ...Thanks mate :)\n\nAUDIO:From the LU ......Thanks mate :)\n\n\n\nNOTES:\n\n\n\nIMAGiNE bringing you another release.......... The Warrior's Way\n\n\n\nHere we are with the russian cam of this one with some farily decent cam audio for it.\n\nFirst off it's not the best cam but you can be the judge, it is watchable for those\n\nwho like cams. For the video we made a small script to adjust the gamma, brightness, chroma,\n\nsharpening filter, and adjusted the colors. We also Ran a high quality smoother on it to touch it up.\n\nThe audio was given to us by LU Thanks Bro... It's fairly good so all we did was sync it to our video.\n\n\n\n\n\nEnjoy folks....","torrent":{"xt":"urn:btih:6ba2cdb63de6510673fe107753b98028dcb95f2e","amp;dn":"The+Warriors+Way+CAM+XViD+-+IMAGiNE","amp;tr":["udp%3A%2F%2Ftracker.openbittorrent.com%3A80","udp%3A%2F%2Fopen.demonii.com%3A1337","udp%3A%2F%2Ftracker.coppersurfer.tk%3A6969","udp%3A%2F%2Fexodus.desync.com%3A6969"],"infoHash":"6ba2cdb63de6510673fe107753b98028dcb95f2e","infoHashBuffer":{"type":"Buffer","data":[107,162,205,182,61,230,81,6,115,254,16,119,83,185,128,40,220,185,95,46]},"announce":[],"urlList":[]}}